<?xml version="1.0" encoding="utf-8" standalone="no"?>
<!DOCTYPE svg PUBLIC "-//W3C//DTD SVG 1.1//EN"
  "http://www.w3.org/Graphics/SVG/1.1/DTD/svg11.dtd">
<svg xmlns:xlink="http://www.w3.org/1999/xlink" width="611.75125pt" height="409.03625pt" viewBox="0 0 611.75125 409.03625" xmlns="http://www.w3.org/2000/svg" version="1.1">
 <metadata>
  <rdf:RDF xmlns:dc="http://purl.org/dc/elements/1.1/" xmlns:cc="http://creativecommons.org/ns#" xmlns:rdf="http://www.w3.org/1999/02/22-rdf-syntax-ns#">
   <cc:Work>
    <dc:type rdf:resource="http://purl.org/dc/dcmitype/StillImage"/>
    <dc:date>2026-07-14T12:08:02.094390</dc:date>
    <dc:format>image/svg+xml</dc:format>
    <dc:creator>
     <cc:Agent>
      <dc:title>Matplotlib v3.10.8, https://matplotlib.org/</dc:title>
     </cc:Agent>
    </dc:creator>
   </cc:Work>
  </rdf:RDF>
 </metadata>
 <defs>
  <style type="text/css">*{stroke-linejoin: round; stroke-linecap: butt}</style>
 </defs>
 <g id="figure_1">
  <g id="patch_1">
   <path d="M -0 409.03625 
L 611.75125 409.03625 
L 611.75125 0 
L -0 0 
z
" style="fill: #ffffff"/>
  </g>
  <g id="axes_1">
   <g id="patch_2">
    <path d="M 43.78125 385.158125 
L 604.55125 385.158125 
L 604.55125 22.318125 
L 43.78125 22.318125 
z
" style="fill: #ffffff"/>
   </g>
   <g id="matplotlib.axis_1">
    <g id="xtick_1">
     <g id="line2d_1">
      <path d="M 69.270795 385.158125 
L 69.270795 22.318125 
" clip-path="url(#p1be1bcf301)" style="fill: none; stroke: #b0b0b0; stroke-opacity: 0.25; stroke-width: 0.8; stroke-linecap: square"/>
     </g>
     <g id="line2d_2">
      <defs>
       <path id="m511d397267" d="M 0 0 
L 0 3.5 
" style="stroke: #000000; stroke-width: 0.8"/>
      </defs>
      <g>
       <use xlink:href="#m511d397267" x="69.270795" y="385.158125" style="stroke: #000000; stroke-width: 0.8"/>
      </g>
     </g>
     <g id="text_1">
      <!-- C1 -->
      <g transform="translate(62.598139 399.756562) scale(0.1 -0.1)">
       <defs>
        <path id="DejaVuSans-43" d="M 4122 4306 
L 4122 3641 
Q 3803 3938 3442 4084 
Q 3081 4231 2675 4231 
Q 1875 4231 1450 3742 
Q 1025 3253 1025 2328 
Q 1025 1406 1450 917 
Q 1875 428 2675 428 
Q 3081 428 3442 575 
Q 3803 722 4122 1019 
L 4122 359 
Q 3791 134 3420 21 
Q 3050 -91 2638 -91 
Q 1578 -91 968 557 
Q 359 1206 359 2328 
Q 359 3453 968 4101 
Q 1578 4750 2638 4750 
Q 3056 4750 3426 4639 
Q 3797 4528 4122 4306 
z
" transform="scale(0.015625)"/>
        <path id="DejaVuSans-31" d="M 794 531 
L 1825 531 
L 1825 4091 
L 703 3866 
L 703 4441 
L 1819 4666 
L 2450 4666 
L 2450 531 
L 3481 531 
L 3481 0 
L 794 0 
L 794 531 
z
" transform="scale(0.015625)"/>
       </defs>
       <use xlink:href="#DejaVuSans-43"/>
       <use xlink:href="#DejaVuSans-31" transform="translate(69.824219 0)"/>
      </g>
     </g>
    </g>
    <g id="xtick_2">
     <g id="line2d_3">
      <path d="M 171.228977 385.158125 
L 171.228977 22.318125 
" clip-path="url(#p1be1bcf301)" style="fill: none; stroke: #b0b0b0; stroke-opacity: 0.25; stroke-width: 0.8; stroke-linecap: square"/>
     </g>
     <g id="line2d_4">
      <g>
       <use xlink:href="#m511d397267" x="171.228977" y="385.158125" style="stroke: #000000; stroke-width: 0.8"/>
      </g>
     </g>
     <g id="text_2">
      <!-- C2 -->
      <g transform="translate(164.556321 399.756562) scale(0.1 -0.1)">
       <defs>
        <path id="DejaVuSans-32" d="M 1228 531 
L 3431 531 
L 3431 0 
L 469 0 
L 469 531 
Q 828 903 1448 1529 
Q 2069 2156 2228 2338 
Q 2531 2678 2651 2914 
Q 2772 3150 2772 3378 
Q 2772 3750 2511 3984 
Q 2250 4219 1831 4219 
Q 1534 4219 1204 4116 
Q 875 4013 500 3803 
L 500 4441 
Q 881 4594 1212 4672 
Q 1544 4750 1819 4750 
Q 2544 4750 2975 4387 
Q 3406 4025 3406 3419 
Q 3406 3131 3298 2873 
Q 3191 2616 2906 2266 
Q 2828 2175 2409 1742 
Q 1991 1309 1228 531 
z
" transform="scale(0.015625)"/>
       </defs>
       <use xlink:href="#DejaVuSans-43"/>
       <use xlink:href="#DejaVuSans-32" transform="translate(69.824219 0)"/>
      </g>
     </g>
    </g>
    <g id="xtick_3">
     <g id="line2d_5">
      <path d="M 273.187159 385.158125 
L 273.187159 22.318125 
" clip-path="url(#p1be1bcf301)" style="fill: none; stroke: #b0b0b0; stroke-opacity: 0.25; stroke-width: 0.8; stroke-linecap: square"/>
     </g>
     <g id="line2d_6">
      <g>
       <use xlink:href="#m511d397267" x="273.187159" y="385.158125" style="stroke: #000000; stroke-width: 0.8"/>
      </g>
     </g>
     <g id="text_3">
      <!-- C3 -->
      <g transform="translate(266.514503 399.756562) scale(0.1 -0.1)">
       <defs>
        <path id="DejaVuSans-33" d="M 2597 2516 
Q 3050 2419 3304 2112 
Q 3559 1806 3559 1356 
Q 3559 666 3084 287 
Q 2609 -91 1734 -91 
Q 1441 -91 1130 -33 
Q 819 25 488 141 
L 488 750 
Q 750 597 1062 519 
Q 1375 441 1716 441 
Q 2309 441 2620 675 
Q 2931 909 2931 1356 
Q 2931 1769 2642 2001 
Q 2353 2234 1838 2234 
L 1294 2234 
L 1294 2753 
L 1863 2753 
Q 2328 2753 2575 2939 
Q 2822 3125 2822 3475 
Q 2822 3834 2567 4026 
Q 2313 4219 1838 4219 
Q 1578 4219 1281 4162 
Q 984 4106 628 3988 
L 628 4550 
Q 988 4650 1302 4700 
Q 1616 4750 1894 4750 
Q 2613 4750 3031 4423 
Q 3450 4097 3450 3541 
Q 3450 3153 3228 2886 
Q 3006 2619 2597 2516 
z
" transform="scale(0.015625)"/>
       </defs>
       <use xlink:href="#DejaVuSans-43"/>
       <use xlink:href="#DejaVuSans-33" transform="translate(69.824219 0)"/>
      </g>
     </g>
    </g>
    <g id="xtick_4">
     <g id="line2d_7">
      <path d="M 375.145341 385.158125 
L 375.145341 22.318125 
" clip-path="url(#p1be1bcf301)" style="fill: none; stroke: #b0b0b0; stroke-opacity: 0.25; stroke-width: 0.8; stroke-linecap: square"/>
     </g>
     <g id="line2d_8">
      <g>
       <use xlink:href="#m511d397267" x="375.145341" y="385.158125" style="stroke: #000000; stroke-width: 0.8"/>
      </g>
     </g>
     <g id="text_4">
      <!-- C4 -->
      <g transform="translate(368.472685 399.756562) scale(0.1 -0.1)">
       <defs>
        <path id="DejaVuSans-34" d="M 2419 4116 
L 825 1625 
L 2419 1625 
L 2419 4116 
z
M 2253 4666 
L 3047 4666 
L 3047 1625 
L 3713 1625 
L 3713 1100 
L 3047 1100 
L 3047 0 
L 2419 0 
L 2419 1100 
L 313 1100 
L 313 1709 
L 2253 4666 
z
" transform="scale(0.015625)"/>
       </defs>
       <use xlink:href="#DejaVuSans-43"/>
       <use xlink:href="#DejaVuSans-34" transform="translate(69.824219 0)"/>
      </g>
     </g>
    </g>
    <g id="xtick_5">
     <g id="line2d_9">
      <path d="M 477.103523 385.158125 
L 477.103523 22.318125 
" clip-path="url(#p1be1bcf301)" style="fill: none; stroke: #b0b0b0; stroke-opacity: 0.25; stroke-width: 0.8; stroke-linecap: square"/>
     </g>
     <g id="line2d_10">
      <g>
       <use xlink:href="#m511d397267" x="477.103523" y="385.158125" style="stroke: #000000; stroke-width: 0.8"/>
      </g>
     </g>
     <g id="text_5">
      <!-- C5 -->
      <g transform="translate(470.430866 399.756562) scale(0.1 -0.1)">
       <defs>
        <path id="DejaVuSans-35" d="M 691 4666 
L 3169 4666 
L 3169 4134 
L 1269 4134 
L 1269 2991 
Q 1406 3038 1543 3061 
Q 1681 3084 1819 3084 
Q 2600 3084 3056 2656 
Q 3513 2228 3513 1497 
Q 3513 744 3044 326 
Q 2575 -91 1722 -91 
Q 1428 -91 1123 -41 
Q 819 9 494 109 
L 494 744 
Q 775 591 1075 516 
Q 1375 441 1709 441 
Q 2250 441 2565 725 
Q 2881 1009 2881 1497 
Q 2881 1984 2565 2268 
Q 2250 2553 1709 2553 
Q 1456 2553 1204 2497 
Q 953 2441 691 2322 
L 691 4666 
z
" transform="scale(0.015625)"/>
       </defs>
       <use xlink:href="#DejaVuSans-43"/>
       <use xlink:href="#DejaVuSans-35" transform="translate(69.824219 0)"/>
      </g>
     </g>
    </g>
    <g id="xtick_6">
     <g id="line2d_11">
      <path d="M 579.061705 385.158125 
L 579.061705 22.318125 
" clip-path="url(#p1be1bcf301)" style="fill: none; stroke: #b0b0b0; stroke-opacity: 0.25; stroke-width: 0.8; stroke-linecap: square"/>
     </g>
     <g id="line2d_12">
      <g>
       <use xlink:href="#m511d397267" x="579.061705" y="385.158125" style="stroke: #000000; stroke-width: 0.8"/>
      </g>
     </g>
     <g id="text_6">
      <!-- C6 -->
      <g transform="translate(572.389048 399.756562) scale(0.1 -0.1)">
       <defs>
        <path id="DejaVuSans-36" d="M 2113 2584 
Q 1688 2584 1439 2293 
Q 1191 2003 1191 1497 
Q 1191 994 1439 701 
Q 1688 409 2113 409 
Q 2538 409 2786 701 
Q 3034 994 3034 1497 
Q 3034 2003 2786 2293 
Q 2538 2584 2113 2584 
z
M 3366 4563 
L 3366 3988 
Q 3128 4100 2886 4159 
Q 2644 4219 2406 4219 
Q 1781 4219 1451 3797 
Q 1122 3375 1075 2522 
Q 1259 2794 1537 2939 
Q 1816 3084 2150 3084 
Q 2853 3084 3261 2657 
Q 3669 2231 3669 1497 
Q 3669 778 3244 343 
Q 2819 -91 2113 -91 
Q 1303 -91 875 529 
Q 447 1150 447 2328 
Q 447 3434 972 4092 
Q 1497 4750 2381 4750 
Q 2619 4750 2861 4703 
Q 3103 4656 3366 4563 
z
" transform="scale(0.015625)"/>
       </defs>
       <use xlink:href="#DejaVuSans-43"/>
       <use xlink:href="#DejaVuSans-36" transform="translate(69.824219 0)"/>
      </g>
     </g>
    </g>
   </g>
   <g id="matplotlib.axis_2">
    <g id="ytick_1">
     <g id="line2d_13">
      <path d="M 43.78125 348.608727 
L 604.55125 348.608727 
" clip-path="url(#p1be1bcf301)" style="fill: none; stroke: #b0b0b0; stroke-opacity: 0.25; stroke-width: 0.8; stroke-linecap: square"/>
     </g>
     <g id="line2d_14">
      <defs>
       <path id="m0c957615a8" d="M 0 0 
L -3.5 0 
" style="stroke: #000000; stroke-width: 0.8"/>
      </defs>
      <g>
       <use xlink:href="#m0c957615a8" x="43.78125" y="348.608727" style="stroke: #000000; stroke-width: 0.8"/>
      </g>
     </g>
     <g id="text_7">
      <!-- 3.0 -->
      <g transform="translate(20.878125 352.407946) scale(0.1 -0.1)">
       <defs>
        <path id="DejaVuSans-2e" d="M 684 794 
L 1344 794 
L 1344 0 
L 684 0 
L 684 794 
z
" transform="scale(0.015625)"/>
        <path id="DejaVuSans-30" d="M 2034 4250 
Q 1547 4250 1301 3770 
Q 1056 3291 1056 2328 
Q 1056 1369 1301 889 
Q 1547 409 2034 409 
Q 2525 409 2770 889 
Q 3016 1369 3016 2328 
Q 3016 3291 2770 3770 
Q 2525 4250 2034 4250 
z
M 2034 4750 
Q 2819 4750 3233 4129 
Q 3647 3509 3647 2328 
Q 3647 1150 3233 529 
Q 2819 -91 2034 -91 
Q 1250 -91 836 529 
Q 422 1150 422 2328 
Q 422 3509 836 4129 
Q 1250 4750 2034 4750 
z
" transform="scale(0.015625)"/>
       </defs>
       <use xlink:href="#DejaVuSans-33"/>
       <use xlink:href="#DejaVuSans-2e" transform="translate(63.623047 0)"/>
       <use xlink:href="#DejaVuSans-30" transform="translate(95.410156 0)"/>
      </g>
     </g>
    </g>
    <g id="ytick_2">
     <g id="line2d_15">
      <path d="M 43.78125 290.202582 
L 604.55125 290.202582 
" clip-path="url(#p1be1bcf301)" style="fill: none; stroke: #b0b0b0; stroke-opacity: 0.25; stroke-width: 0.8; stroke-linecap: square"/>
     </g>
     <g id="line2d_16">
      <g>
       <use xlink:href="#m0c957615a8" x="43.78125" y="290.202582" style="stroke: #000000; stroke-width: 0.8"/>
      </g>
     </g>
     <g id="text_8">
      <!-- 3.5 -->
      <g transform="translate(20.878125 294.001801) scale(0.1 -0.1)">
       <use xlink:href="#DejaVuSans-33"/>
       <use xlink:href="#DejaVuSans-2e" transform="translate(63.623047 0)"/>
       <use xlink:href="#DejaVuSans-35" transform="translate(95.410156 0)"/>
      </g>
     </g>
    </g>
    <g id="ytick_3">
     <g id="line2d_17">
      <path d="M 43.78125 231.796437 
L 604.55125 231.796437 
" clip-path="url(#p1be1bcf301)" style="fill: none; stroke: #b0b0b0; stroke-opacity: 0.25; stroke-width: 0.8; stroke-linecap: square"/>
     </g>
     <g id="line2d_18">
      <g>
       <use xlink:href="#m0c957615a8" x="43.78125" y="231.796437" style="stroke: #000000; stroke-width: 0.8"/>
      </g>
     </g>
     <g id="text_9">
      <!-- 4.0 -->
      <g transform="translate(20.878125 235.595656) scale(0.1 -0.1)">
       <use xlink:href="#DejaVuSans-34"/>
       <use xlink:href="#DejaVuSans-2e" transform="translate(63.623047 0)"/>
       <use xlink:href="#DejaVuSans-30" transform="translate(95.410156 0)"/>
      </g>
     </g>
    </g>
    <g id="ytick_4">
     <g id="line2d_19">
      <path d="M 43.78125 173.390292 
L 604.55125 173.390292 
" clip-path="url(#p1be1bcf301)" style="fill: none; stroke: #b0b0b0; stroke-opacity: 0.25; stroke-width: 0.8; stroke-linecap: square"/>
     </g>
     <g id="line2d_20">
      <g>
       <use xlink:href="#m0c957615a8" x="43.78125" y="173.390292" style="stroke: #000000; stroke-width: 0.8"/>
      </g>
     </g>
     <g id="text_10">
      <!-- 4.5 -->
      <g transform="translate(20.878125 177.189511) scale(0.1 -0.1)">
       <use xlink:href="#DejaVuSans-34"/>
       <use xlink:href="#DejaVuSans-2e" transform="translate(63.623047 0)"/>
       <use xlink:href="#DejaVuSans-35" transform="translate(95.410156 0)"/>
      </g>
     </g>
    </g>
    <g id="ytick_5">
     <g id="line2d_21">
      <path d="M 43.78125 114.984147 
L 604.55125 114.984147 
" clip-path="url(#p1be1bcf301)" style="fill: none; stroke: #b0b0b0; stroke-opacity: 0.25; stroke-width: 0.8; stroke-linecap: square"/>
     </g>
     <g id="line2d_22">
      <g>
       <use xlink:href="#m0c957615a8" x="43.78125" y="114.984147" style="stroke: #000000; stroke-width: 0.8"/>
      </g>
     </g>
     <g id="text_11">
      <!-- 5.0 -->
      <g transform="translate(20.878125 118.783366) scale(0.1 -0.1)">
       <use xlink:href="#DejaVuSans-35"/>
       <use xlink:href="#DejaVuSans-2e" transform="translate(63.623047 0)"/>
       <use xlink:href="#DejaVuSans-30" transform="translate(95.410156 0)"/>
      </g>
     </g>
    </g>
    <g id="ytick_6">
     <g id="line2d_23">
      <path d="M 43.78125 56.578002 
L 604.55125 56.578002 
" clip-path="url(#p1be1bcf301)" style="fill: none; stroke: #b0b0b0; stroke-opacity: 0.25; stroke-width: 0.8; stroke-linecap: square"/>
     </g>
     <g id="line2d_24">
      <g>
       <use xlink:href="#m0c957615a8" x="43.78125" y="56.578002" style="stroke: #000000; stroke-width: 0.8"/>
      </g>
     </g>
     <g id="text_12">
      <!-- 5.5 -->
      <g transform="translate(20.878125 60.37722) scale(0.1 -0.1)">
       <use xlink:href="#DejaVuSans-35"/>
       <use xlink:href="#DejaVuSans-2e" transform="translate(63.623047 0)"/>
       <use xlink:href="#DejaVuSans-35" transform="translate(95.410156 0)"/>
      </g>
     </g>
    </g>
    <g id="text_13">
     <!-- Score -->
     <g transform="translate(14.798438 217.740469) rotate(-90) scale(0.1 -0.1)">
      <defs>
       <path id="DejaVuSans-53" d="M 3425 4513 
L 3425 3897 
Q 3066 4069 2747 4153 
Q 2428 4238 2131 4238 
Q 1616 4238 1336 4038 
Q 1056 3838 1056 3469 
Q 1056 3159 1242 3001 
Q 1428 2844 1947 2747 
L 2328 2669 
Q 3034 2534 3370 2195 
Q 3706 1856 3706 1288 
Q 3706 609 3251 259 
Q 2797 -91 1919 -91 
Q 1588 -91 1214 -16 
Q 841 59 441 206 
L 441 856 
Q 825 641 1194 531 
Q 1563 422 1919 422 
Q 2459 422 2753 634 
Q 3047 847 3047 1241 
Q 3047 1584 2836 1778 
Q 2625 1972 2144 2069 
L 1759 2144 
Q 1053 2284 737 2584 
Q 422 2884 422 3419 
Q 422 4038 858 4394 
Q 1294 4750 2059 4750 
Q 2388 4750 2728 4690 
Q 3069 4631 3425 4513 
z
" transform="scale(0.015625)"/>
       <path id="DejaVuSans-63" d="M 3122 3366 
L 3122 2828 
Q 2878 2963 2633 3030 
Q 2388 3097 2138 3097 
Q 1578 3097 1268 2742 
Q 959 2388 959 1747 
Q 959 1106 1268 751 
Q 1578 397 2138 397 
Q 2388 397 2633 464 
Q 2878 531 3122 666 
L 3122 134 
Q 2881 22 2623 -34 
Q 2366 -91 2075 -91 
Q 1284 -91 818 406 
Q 353 903 353 1747 
Q 353 2603 823 3093 
Q 1294 3584 2113 3584 
Q 2378 3584 2631 3529 
Q 2884 3475 3122 3366 
z
" transform="scale(0.015625)"/>
       <path id="DejaVuSans-6f" d="M 1959 3097 
Q 1497 3097 1228 2736 
Q 959 2375 959 1747 
Q 959 1119 1226 758 
Q 1494 397 1959 397 
Q 2419 397 2687 759 
Q 2956 1122 2956 1747 
Q 2956 2369 2687 2733 
Q 2419 3097 1959 3097 
z
M 1959 3584 
Q 2709 3584 3137 3096 
Q 3566 2609 3566 1747 
Q 3566 888 3137 398 
Q 2709 -91 1959 -91 
Q 1206 -91 779 398 
Q 353 888 353 1747 
Q 353 2609 779 3096 
Q 1206 3584 1959 3584 
z
" transform="scale(0.015625)"/>
       <path id="DejaVuSans-72" d="M 2631 2963 
Q 2534 3019 2420 3045 
Q 2306 3072 2169 3072 
Q 1681 3072 1420 2755 
Q 1159 2438 1159 1844 
L 1159 0 
L 581 0 
L 581 3500 
L 1159 3500 
L 1159 2956 
Q 1341 3275 1631 3429 
Q 1922 3584 2338 3584 
Q 2397 3584 2469 3576 
Q 2541 3569 2628 3553 
L 2631 2963 
z
" transform="scale(0.015625)"/>
       <path id="DejaVuSans-65" d="M 3597 1894 
L 3597 1613 
L 953 1613 
Q 991 1019 1311 708 
Q 1631 397 2203 397 
Q 2534 397 2845 478 
Q 3156 559 3463 722 
L 3463 178 
Q 3153 47 2828 -22 
Q 2503 -91 2169 -91 
Q 1331 -91 842 396 
Q 353 884 353 1716 
Q 353 2575 817 3079 
Q 1281 3584 2069 3584 
Q 2775 3584 3186 3129 
Q 3597 2675 3597 1894 
z
M 3022 2063 
Q 3016 2534 2758 2815 
Q 2500 3097 2075 3097 
Q 1594 3097 1305 2825 
Q 1016 2553 972 2059 
L 3022 2063 
z
" transform="scale(0.015625)"/>
      </defs>
      <use xlink:href="#DejaVuSans-53"/>
      <use xlink:href="#DejaVuSans-63" transform="translate(63.476562 0)"/>
      <use xlink:href="#DejaVuSans-6f" transform="translate(118.457031 0)"/>
      <use xlink:href="#DejaVuSans-72" transform="translate(179.638672 0)"/>
      <use xlink:href="#DejaVuSans-65" transform="translate(218.501953 0)"/>
     </g>
    </g>
   </g>
   <g id="LineCollection_1">
    <path d="M 69.270795 344.239948 
L 69.270795 312.116568 
" clip-path="url(#p1be1bcf301)" style="fill: none; stroke: #1f77b4; stroke-width: 1.5"/>
    <path d="M 171.228977 295.529223 
L 171.228977 264.223529 
" clip-path="url(#p1be1bcf301)" style="fill: none; stroke: #1f77b4; stroke-width: 1.5"/>
    <path d="M 273.187159 241.387018 
L 273.187159 210.419496 
" clip-path="url(#p1be1bcf301)" style="fill: none; stroke: #1f77b4; stroke-width: 1.5"/>
    <path d="M 375.145341 190.783642 
L 375.145341 160.716158 
" clip-path="url(#p1be1bcf301)" style="fill: none; stroke: #1f77b4; stroke-width: 1.5"/>
    <path d="M 477.103523 368.665398 
L 477.103523 340.992566 
" clip-path="url(#p1be1bcf301)" style="fill: none; stroke: #1f77b4; stroke-width: 1.5"/>
    <path d="M 579.061705 210.303268 
L 579.061705 182.466315 
" clip-path="url(#p1be1bcf301)" style="fill: none; stroke: #1f77b4; stroke-width: 1.5"/>
   </g>
   <g id="line2d_25">
    <defs>
     <path id="m4b4dafa8b9" d="M 3 0 
L -3 -0 
" style="stroke: #1f77b4"/>
    </defs>
    <g clip-path="url(#p1be1bcf301)">
     <use xlink:href="#m4b4dafa8b9" x="69.270795" y="344.239948" style="fill: #1f77b4; stroke: #1f77b4"/>
     <use xlink:href="#m4b4dafa8b9" x="171.228977" y="295.529223" style="fill: #1f77b4; stroke: #1f77b4"/>
     <use xlink:href="#m4b4dafa8b9" x="273.187159" y="241.387018" style="fill: #1f77b4; stroke: #1f77b4"/>
     <use xlink:href="#m4b4dafa8b9" x="375.145341" y="190.783642" style="fill: #1f77b4; stroke: #1f77b4"/>
     <use xlink:href="#m4b4dafa8b9" x="477.103523" y="368.665398" style="fill: #1f77b4; stroke: #1f77b4"/>
     <use xlink:href="#m4b4dafa8b9" x="579.061705" y="210.303268" style="fill: #1f77b4; stroke: #1f77b4"/>
    </g>
   </g>
   <g id="line2d_26">
    <g clip-path="url(#p1be1bcf301)">
     <use xlink:href="#m4b4dafa8b9" x="69.270795" y="312.116568" style="fill: #1f77b4; stroke: #1f77b4"/>
     <use xlink:href="#m4b4dafa8b9" x="171.228977" y="264.223529" style="fill: #1f77b4; stroke: #1f77b4"/>
     <use xlink:href="#m4b4dafa8b9" x="273.187159" y="210.419496" style="fill: #1f77b4; stroke: #1f77b4"/>
     <use xlink:href="#m4b4dafa8b9" x="375.145341" y="160.716158" style="fill: #1f77b4; stroke: #1f77b4"/>
     <use xlink:href="#m4b4dafa8b9" x="477.103523" y="340.992566" style="fill: #1f77b4; stroke: #1f77b4"/>
     <use xlink:href="#m4b4dafa8b9" x="579.061705" y="182.466315" style="fill: #1f77b4; stroke: #1f77b4"/>
    </g>
   </g>
   <g id="LineCollection_2">
    <path d="M 69.270795 216.727652 
L 69.270795 186.625124 
" clip-path="url(#p1be1bcf301)" style="fill: none; stroke: #ff7f0e; stroke-width: 1.5"/>
    <path d="M 171.228977 177.700665 
L 171.228977 149.875686 
" clip-path="url(#p1be1bcf301)" style="fill: none; stroke: #ff7f0e; stroke-width: 1.5"/>
    <path d="M 273.187159 316.765697 
L 273.187159 280.063276 
" clip-path="url(#p1be1bcf301)" style="fill: none; stroke: #ff7f0e; stroke-width: 1.5"/>
    <path d="M 375.145341 274.281651 
L 375.145341 233.116416 
" clip-path="url(#p1be1bcf301)" style="fill: none; stroke: #ff7f0e; stroke-width: 1.5"/>
    <path d="M 477.103523 64.381939 
L 477.103523 38.810852 
" clip-path="url(#p1be1bcf301)" style="fill: none; stroke: #ff7f0e; stroke-width: 1.5"/>
    <path d="M 579.061705 93.91121 
L 579.061705 59.965558 
" clip-path="url(#p1be1bcf301)" style="fill: none; stroke: #ff7f0e; stroke-width: 1.5"/>
   </g>
   <g id="line2d_27">
    <defs>
     <path id="mb530c0ec08" d="M 3 0 
L -3 -0 
" style="stroke: #ff7f0e"/>
    </defs>
    <g clip-path="url(#p1be1bcf301)">
     <use xlink:href="#mb530c0ec08" x="69.270795" y="216.727652" style="fill: #ff7f0e; stroke: #ff7f0e"/>
     <use xlink:href="#mb530c0ec08" x="171.228977" y="177.700665" style="fill: #ff7f0e; stroke: #ff7f0e"/>
     <use xlink:href="#mb530c0ec08" x="273.187159" y="316.765697" style="fill: #ff7f0e; stroke: #ff7f0e"/>
     <use xlink:href="#mb530c0ec08" x="375.145341" y="274.281651" style="fill: #ff7f0e; stroke: #ff7f0e"/>
     <use xlink:href="#mb530c0ec08" x="477.103523" y="64.381939" style="fill: #ff7f0e; stroke: #ff7f0e"/>
     <use xlink:href="#mb530c0ec08" x="579.061705" y="93.91121" style="fill: #ff7f0e; stroke: #ff7f0e"/>
    </g>
   </g>
   <g id="line2d_28">
    <g clip-path="url(#p1be1bcf301)">
     <use xlink:href="#mb530c0ec08" x="69.270795" y="186.625124" style="fill: #ff7f0e; stroke: #ff7f0e"/>
     <use xlink:href="#mb530c0ec08" x="171.228977" y="149.875686" style="fill: #ff7f0e; stroke: #ff7f0e"/>
     <use xlink:href="#mb530c0ec08" x="273.187159" y="280.063276" style="fill: #ff7f0e; stroke: #ff7f0e"/>
     <use xlink:href="#mb530c0ec08" x="375.145341" y="233.116416" style="fill: #ff7f0e; stroke: #ff7f0e"/>
     <use xlink:href="#mb530c0ec08" x="477.103523" y="38.810852" style="fill: #ff7f0e; stroke: #ff7f0e"/>
     <use xlink:href="#mb530c0ec08" x="579.061705" y="59.965558" style="fill: #ff7f0e; stroke: #ff7f0e"/>
    </g>
   </g>
   <g id="LineCollection_3">
    <path d="M 69.270795 331.951879 
L 69.270795 309.815074 
" clip-path="url(#p1be1bcf301)" style="fill: none; stroke: #2ca02c; stroke-width: 1.5"/>
    <path d="M 171.228977 288.368629 
L 171.228977 268.019928 
" clip-path="url(#p1be1bcf301)" style="fill: none; stroke: #2ca02c; stroke-width: 1.5"/>
    <path d="M 273.187159 366.095527 
L 273.187159 345.96877 
" clip-path="url(#p1be1bcf301)" style="fill: none; stroke: #2ca02c; stroke-width: 1.5"/>
    <path d="M 375.145341 334.077279 
L 375.145341 309.862091 
" clip-path="url(#p1be1bcf301)" style="fill: none; stroke: #2ca02c; stroke-width: 1.5"/>
    <path d="M 477.103523 336.752572 
L 477.103523 316.99903 
" clip-path="url(#p1be1bcf301)" style="fill: none; stroke: #2ca02c; stroke-width: 1.5"/>
    <path d="M 579.061705 203.224151 
L 579.061705 181.485384 
" clip-path="url(#p1be1bcf301)" style="fill: none; stroke: #2ca02c; stroke-width: 1.5"/>
   </g>
   <g id="line2d_29">
    <defs>
     <path id="mf941827146" d="M 3 0 
L -3 -0 
" style="stroke: #2ca02c"/>
    </defs>
    <g clip-path="url(#p1be1bcf301)">
     <use xlink:href="#mf941827146" x="69.270795" y="331.951879" style="fill: #2ca02c; stroke: #2ca02c"/>
     <use xlink:href="#mf941827146" x="171.228977" y="288.368629" style="fill: #2ca02c; stroke: #2ca02c"/>
     <use xlink:href="#mf941827146" x="273.187159" y="366.095527" style="fill: #2ca02c; stroke: #2ca02c"/>
     <use xlink:href="#mf941827146" x="375.145341" y="334.077279" style="fill: #2ca02c; stroke: #2ca02c"/>
     <use xlink:href="#mf941827146" x="477.103523" y="336.752572" style="fill: #2ca02c; stroke: #2ca02c"/>
     <use xlink:href="#mf941827146" x="579.061705" y="203.224151" style="fill: #2ca02c; stroke: #2ca02c"/>
    </g>
   </g>
   <g id="line2d_30">
    <g clip-path="url(#p1be1bcf301)">
     <use xlink:href="#mf941827146" x="69.270795" y="309.815074" style="fill: #2ca02c; stroke: #2ca02c"/>
     <use xlink:href="#mf941827146" x="171.228977" y="268.019928" style="fill: #2ca02c; stroke: #2ca02c"/>
     <use xlink:href="#mf941827146" x="273.187159" y="345.96877" style="fill: #2ca02c; stroke: #2ca02c"/>
     <use xlink:href="#mf941827146" x="375.145341" y="309.862091" style="fill: #2ca02c; stroke: #2ca02c"/>
     <use xlink:href="#mf941827146" x="477.103523" y="316.99903" style="fill: #2ca02c; stroke: #2ca02c"/>
     <use xlink:href="#mf941827146" x="579.061705" y="181.485384" style="fill: #2ca02c; stroke: #2ca02c"/>
    </g>
   </g>
   <g id="line2d_31">
    <path d="M 69.270795 328.446926 
L 171.228977 280.121682 
L 273.187159 225.93246 
L 375.145341 175.7499 
L 477.103523 354.963316 
L 579.061705 196.390632 
" clip-path="url(#p1be1bcf301)" style="fill: none; stroke: #1f77b4; stroke-width: 1.5; stroke-linecap: square"/>
    <defs>
     <path id="m4e02ed8ad8" d="M 0 3 
C 0.795609 3 1.55874 2.683901 2.12132 2.12132 
C 2.683901 1.55874 3 0.795609 3 0 
C 3 -0.795609 2.683901 -1.55874 2.12132 -2.12132 
C 1.55874 -2.683901 0.795609 -3 0 -3 
C -0.795609 -3 -1.55874 -2.683901 -2.12132 -2.12132 
C -2.683901 -1.55874 -3 -0.795609 -3 0 
C -3 0.795609 -2.683901 1.55874 -2.12132 2.12132 
C -1.55874 2.683901 -0.795609 3 0 3 
z
" style="stroke: #1f77b4"/>
    </defs>
    <g clip-path="url(#p1be1bcf301)">
     <use xlink:href="#m4e02ed8ad8" x="69.270795" y="328.446926" style="fill: #1f77b4; stroke: #1f77b4"/>
     <use xlink:href="#m4e02ed8ad8" x="171.228977" y="280.121682" style="fill: #1f77b4; stroke: #1f77b4"/>
     <use xlink:href="#m4e02ed8ad8" x="273.187159" y="225.93246" style="fill: #1f77b4; stroke: #1f77b4"/>
     <use xlink:href="#m4e02ed8ad8" x="375.145341" y="175.7499" style="fill: #1f77b4; stroke: #1f77b4"/>
     <use xlink:href="#m4e02ed8ad8" x="477.103523" y="354.963316" style="fill: #1f77b4; stroke: #1f77b4"/>
     <use xlink:href="#m4e02ed8ad8" x="579.061705" y="196.390632" style="fill: #1f77b4; stroke: #1f77b4"/>
    </g>
   </g>
   <g id="line2d_32">
    <path d="M 69.270795 201.261704 
L 171.228977 163.402841 
L 273.187159 297.935556 
L 375.145341 253.056274 
L 477.103523 51.321449 
L 579.061705 76.482816 
" clip-path="url(#p1be1bcf301)" style="fill: none; stroke-dasharray: 5.55,2.4; stroke-dashoffset: 0; stroke: #ff7f0e; stroke-width: 1.5"/>
    <defs>
     <path id="m200b8048c4" d="M -3 3 
L 3 3 
L 3 -3 
L -3 -3 
z
" style="stroke: #ff7f0e; stroke-linejoin: miter"/>
    </defs>
    <g clip-path="url(#p1be1bcf301)">
     <use xlink:href="#m200b8048c4" x="69.270795" y="201.261704" style="fill: #ff7f0e; stroke: #ff7f0e; stroke-linejoin: miter"/>
     <use xlink:href="#m200b8048c4" x="171.228977" y="163.402841" style="fill: #ff7f0e; stroke: #ff7f0e; stroke-linejoin: miter"/>
     <use xlink:href="#m200b8048c4" x="273.187159" y="297.935556" style="fill: #ff7f0e; stroke: #ff7f0e; stroke-linejoin: miter"/>
     <use xlink:href="#m200b8048c4" x="375.145341" y="253.056274" style="fill: #ff7f0e; stroke: #ff7f0e; stroke-linejoin: miter"/>
     <use xlink:href="#m200b8048c4" x="477.103523" y="51.321449" style="fill: #ff7f0e; stroke: #ff7f0e; stroke-linejoin: miter"/>
     <use xlink:href="#m200b8048c4" x="579.061705" y="76.482816" style="fill: #ff7f0e; stroke: #ff7f0e; stroke-linejoin: miter"/>
    </g>
   </g>
   <g id="line2d_33">
    <path d="M 69.270795 320.795721 
L 171.228977 278.11251 
L 273.187159 355.710915 
L 375.145341 321.660132 
L 477.103523 326.648017 
L 579.061705 192.126983 
" clip-path="url(#p1be1bcf301)" style="fill: none; stroke-dasharray: 9.6,2.4,1.5,2.4; stroke-dashoffset: 0; stroke: #2ca02c; stroke-width: 1.5"/>
    <defs>
     <path id="m46ecdc07bd" d="M -0 4.242641 
L 4.242641 0 
L 0 -4.242641 
L -4.242641 -0 
z
" style="stroke: #2ca02c; stroke-linejoin: miter"/>
    </defs>
    <g clip-path="url(#p1be1bcf301)">
     <use xlink:href="#m46ecdc07bd" x="69.270795" y="320.795721" style="fill: #2ca02c; stroke: #2ca02c; stroke-linejoin: miter"/>
     <use xlink:href="#m46ecdc07bd" x="171.228977" y="278.11251" style="fill: #2ca02c; stroke: #2ca02c; stroke-linejoin: miter"/>
     <use xlink:href="#m46ecdc07bd" x="273.187159" y="355.710915" style="fill: #2ca02c; stroke: #2ca02c; stroke-linejoin: miter"/>
     <use xlink:href="#m46ecdc07bd" x="375.145341" y="321.660132" style="fill: #2ca02c; stroke: #2ca02c; stroke-linejoin: miter"/>
     <use xlink:href="#m46ecdc07bd" x="477.103523" y="326.648017" style="fill: #2ca02c; stroke: #2ca02c; stroke-linejoin: miter"/>
     <use xlink:href="#m46ecdc07bd" x="579.061705" y="192.126983" style="fill: #2ca02c; stroke: #2ca02c; stroke-linejoin: miter"/>
    </g>
   </g>
   <g id="patch_3">
    <path d="M 43.78125 385.158125 
L 43.78125 22.318125 
" style="fill: none; stroke: #000000; stroke-width: 0.8; stroke-linejoin: miter; stroke-linecap: square"/>
   </g>
   <g id="patch_4">
    <path d="M 604.55125 385.158125 
L 604.55125 22.318125 
" style="fill: none; stroke: #000000; stroke-width: 0.8; stroke-linejoin: miter; stroke-linecap: square"/>
   </g>
   <g id="patch_5">
    <path d="M 43.78125 385.158125 
L 604.55125 385.158125 
" style="fill: none; stroke: #000000; stroke-width: 0.8; stroke-linejoin: miter; stroke-linecap: square"/>
   </g>
   <g id="patch_6">
    <path d="M 43.78125 22.318125 
L 604.55125 22.318125 
" style="fill: none; stroke: #000000; stroke-width: 0.8; stroke-linejoin: miter; stroke-linecap: square"/>
   </g>
   <g id="text_14">
    <!-- Response profiles with 95% scene-level bootstrap confidence intervals -->
    <g transform="translate(112.03625 16.318125) scale(0.12 -0.12)">
     <defs>
      <path id="DejaVuSans-52" d="M 2841 2188 
Q 3044 2119 3236 1894 
Q 3428 1669 3622 1275 
L 4263 0 
L 3584 0 
L 2988 1197 
Q 2756 1666 2539 1819 
Q 2322 1972 1947 1972 
L 1259 1972 
L 1259 0 
L 628 0 
L 628 4666 
L 2053 4666 
Q 2853 4666 3247 4331 
Q 3641 3997 3641 3322 
Q 3641 2881 3436 2590 
Q 3231 2300 2841 2188 
z
M 1259 4147 
L 1259 2491 
L 2053 2491 
Q 2509 2491 2742 2702 
Q 2975 2913 2975 3322 
Q 2975 3731 2742 3939 
Q 2509 4147 2053 4147 
L 1259 4147 
z
" transform="scale(0.015625)"/>
      <path id="DejaVuSans-73" d="M 2834 3397 
L 2834 2853 
Q 2591 2978 2328 3040 
Q 2066 3103 1784 3103 
Q 1356 3103 1142 2972 
Q 928 2841 928 2578 
Q 928 2378 1081 2264 
Q 1234 2150 1697 2047 
L 1894 2003 
Q 2506 1872 2764 1633 
Q 3022 1394 3022 966 
Q 3022 478 2636 193 
Q 2250 -91 1575 -91 
Q 1294 -91 989 -36 
Q 684 19 347 128 
L 347 722 
Q 666 556 975 473 
Q 1284 391 1588 391 
Q 1994 391 2212 530 
Q 2431 669 2431 922 
Q 2431 1156 2273 1281 
Q 2116 1406 1581 1522 
L 1381 1569 
Q 847 1681 609 1914 
Q 372 2147 372 2553 
Q 372 3047 722 3315 
Q 1072 3584 1716 3584 
Q 2034 3584 2315 3537 
Q 2597 3491 2834 3397 
z
" transform="scale(0.015625)"/>
      <path id="DejaVuSans-70" d="M 1159 525 
L 1159 -1331 
L 581 -1331 
L 581 3500 
L 1159 3500 
L 1159 2969 
Q 1341 3281 1617 3432 
Q 1894 3584 2278 3584 
Q 2916 3584 3314 3078 
Q 3713 2572 3713 1747 
Q 3713 922 3314 415 
Q 2916 -91 2278 -91 
Q 1894 -91 1617 61 
Q 1341 213 1159 525 
z
M 3116 1747 
Q 3116 2381 2855 2742 
Q 2594 3103 2138 3103 
Q 1681 3103 1420 2742 
Q 1159 2381 1159 1747 
Q 1159 1113 1420 752 
Q 1681 391 2138 391 
Q 2594 391 2855 752 
Q 3116 1113 3116 1747 
z
" transform="scale(0.015625)"/>
      <path id="DejaVuSans-6e" d="M 3513 2113 
L 3513 0 
L 2938 0 
L 2938 2094 
Q 2938 2591 2744 2837 
Q 2550 3084 2163 3084 
Q 1697 3084 1428 2787 
Q 1159 2491 1159 1978 
L 1159 0 
L 581 0 
L 581 3500 
L 1159 3500 
L 1159 2956 
Q 1366 3272 1645 3428 
Q 1925 3584 2291 3584 
Q 2894 3584 3203 3211 
Q 3513 2838 3513 2113 
z
" transform="scale(0.015625)"/>
      <path id="DejaVuSans-20" transform="scale(0.015625)"/>
      <path id="DejaVuSans-66" d="M 2375 4863 
L 2375 4384 
L 1825 4384 
Q 1516 4384 1395 4259 
Q 1275 4134 1275 3809 
L 1275 3500 
L 2222 3500 
L 2222 3053 
L 1275 3053 
L 1275 0 
L 697 0 
L 697 3053 
L 147 3053 
L 147 3500 
L 697 3500 
L 697 3744 
Q 697 4328 969 4595 
Q 1241 4863 1831 4863 
L 2375 4863 
z
" transform="scale(0.015625)"/>
      <path id="DejaVuSans-69" d="M 603 3500 
L 1178 3500 
L 1178 0 
L 603 0 
L 603 3500 
z
M 603 4863 
L 1178 4863 
L 1178 4134 
L 603 4134 
L 603 4863 
z
" transform="scale(0.015625)"/>
      <path id="DejaVuSans-6c" d="M 603 4863 
L 1178 4863 
L 1178 0 
L 603 0 
L 603 4863 
z
" transform="scale(0.015625)"/>
      <path id="DejaVuSans-77" d="M 269 3500 
L 844 3500 
L 1563 769 
L 2278 3500 
L 2956 3500 
L 3675 769 
L 4391 3500 
L 4966 3500 
L 4050 0 
L 3372 0 
L 2619 2869 
L 1863 0 
L 1184 0 
L 269 3500 
z
" transform="scale(0.015625)"/>
      <path id="DejaVuSans-74" d="M 1172 4494 
L 1172 3500 
L 2356 3500 
L 2356 3053 
L 1172 3053 
L 1172 1153 
Q 1172 725 1289 603 
Q 1406 481 1766 481 
L 2356 481 
L 2356 0 
L 1766 0 
Q 1100 0 847 248 
Q 594 497 594 1153 
L 594 3053 
L 172 3053 
L 172 3500 
L 594 3500 
L 594 4494 
L 1172 4494 
z
" transform="scale(0.015625)"/>
      <path id="DejaVuSans-68" d="M 3513 2113 
L 3513 0 
L 2938 0 
L 2938 2094 
Q 2938 2591 2744 2837 
Q 2550 3084 2163 3084 
Q 1697 3084 1428 2787 
Q 1159 2491 1159 1978 
L 1159 0 
L 581 0 
L 581 4863 
L 1159 4863 
L 1159 2956 
Q 1366 3272 1645 3428 
Q 1925 3584 2291 3584 
Q 2894 3584 3203 3211 
Q 3513 2838 3513 2113 
z
" transform="scale(0.015625)"/>
      <path id="DejaVuSans-39" d="M 703 97 
L 703 672 
Q 941 559 1184 500 
Q 1428 441 1663 441 
Q 2288 441 2617 861 
Q 2947 1281 2994 2138 
Q 2813 1869 2534 1725 
Q 2256 1581 1919 1581 
Q 1219 1581 811 2004 
Q 403 2428 403 3163 
Q 403 3881 828 4315 
Q 1253 4750 1959 4750 
Q 2769 4750 3195 4129 
Q 3622 3509 3622 2328 
Q 3622 1225 3098 567 
Q 2575 -91 1691 -91 
Q 1453 -91 1209 -44 
Q 966 3 703 97 
z
M 1959 2075 
Q 2384 2075 2632 2365 
Q 2881 2656 2881 3163 
Q 2881 3666 2632 3958 
Q 2384 4250 1959 4250 
Q 1534 4250 1286 3958 
Q 1038 3666 1038 3163 
Q 1038 2656 1286 2365 
Q 1534 2075 1959 2075 
z
" transform="scale(0.015625)"/>
      <path id="DejaVuSans-25" d="M 4653 2053 
Q 4381 2053 4226 1822 
Q 4072 1591 4072 1178 
Q 4072 772 4226 539 
Q 4381 306 4653 306 
Q 4919 306 5073 539 
Q 5228 772 5228 1178 
Q 5228 1588 5073 1820 
Q 4919 2053 4653 2053 
z
M 4653 2450 
Q 5147 2450 5437 2106 
Q 5728 1763 5728 1178 
Q 5728 594 5436 251 
Q 5144 -91 4653 -91 
Q 4153 -91 3862 251 
Q 3572 594 3572 1178 
Q 3572 1766 3864 2108 
Q 4156 2450 4653 2450 
z
M 1428 4353 
Q 1159 4353 1004 4120 
Q 850 3888 850 3481 
Q 850 3069 1003 2837 
Q 1156 2606 1428 2606 
Q 1700 2606 1854 2837 
Q 2009 3069 2009 3481 
Q 2009 3884 1853 4118 
Q 1697 4353 1428 4353 
z
M 4250 4750 
L 4750 4750 
L 1831 -91 
L 1331 -91 
L 4250 4750 
z
M 1428 4750 
Q 1922 4750 2215 4408 
Q 2509 4066 2509 3481 
Q 2509 2891 2217 2550 
Q 1925 2209 1428 2209 
Q 931 2209 642 2551 
Q 353 2894 353 3481 
Q 353 4063 643 4406 
Q 934 4750 1428 4750 
z
" transform="scale(0.015625)"/>
      <path id="DejaVuSans-2d" d="M 313 2009 
L 1997 2009 
L 1997 1497 
L 313 1497 
L 313 2009 
z
" transform="scale(0.015625)"/>
      <path id="DejaVuSans-76" d="M 191 3500 
L 800 3500 
L 1894 563 
L 2988 3500 
L 3597 3500 
L 2284 0 
L 1503 0 
L 191 3500 
z
" transform="scale(0.015625)"/>
      <path id="DejaVuSans-62" d="M 3116 1747 
Q 3116 2381 2855 2742 
Q 2594 3103 2138 3103 
Q 1681 3103 1420 2742 
Q 1159 2381 1159 1747 
Q 1159 1113 1420 752 
Q 1681 391 2138 391 
Q 2594 391 2855 752 
Q 3116 1113 3116 1747 
z
M 1159 2969 
Q 1341 3281 1617 3432 
Q 1894 3584 2278 3584 
Q 2916 3584 3314 3078 
Q 3713 2572 3713 1747 
Q 3713 922 3314 415 
Q 2916 -91 2278 -91 
Q 1894 -91 1617 61 
Q 1341 213 1159 525 
L 1159 0 
L 581 0 
L 581 4863 
L 1159 4863 
L 1159 2969 
z
" transform="scale(0.015625)"/>
      <path id="DejaVuSans-61" d="M 2194 1759 
Q 1497 1759 1228 1600 
Q 959 1441 959 1056 
Q 959 750 1161 570 
Q 1363 391 1709 391 
Q 2188 391 2477 730 
Q 2766 1069 2766 1631 
L 2766 1759 
L 2194 1759 
z
M 3341 1997 
L 3341 0 
L 2766 0 
L 2766 531 
Q 2569 213 2275 61 
Q 1981 -91 1556 -91 
Q 1019 -91 701 211 
Q 384 513 384 1019 
Q 384 1609 779 1909 
Q 1175 2209 1959 2209 
L 2766 2209 
L 2766 2266 
Q 2766 2663 2505 2880 
Q 2244 3097 1772 3097 
Q 1472 3097 1187 3025 
Q 903 2953 641 2809 
L 641 3341 
Q 956 3463 1253 3523 
Q 1550 3584 1831 3584 
Q 2591 3584 2966 3190 
Q 3341 2797 3341 1997 
z
" transform="scale(0.015625)"/>
      <path id="DejaVuSans-64" d="M 2906 2969 
L 2906 4863 
L 3481 4863 
L 3481 0 
L 2906 0 
L 2906 525 
Q 2725 213 2448 61 
Q 2172 -91 1784 -91 
Q 1150 -91 751 415 
Q 353 922 353 1747 
Q 353 2572 751 3078 
Q 1150 3584 1784 3584 
Q 2172 3584 2448 3432 
Q 2725 3281 2906 2969 
z
M 947 1747 
Q 947 1113 1208 752 
Q 1469 391 1925 391 
Q 2381 391 2643 752 
Q 2906 1113 2906 1747 
Q 2906 2381 2643 2742 
Q 2381 3103 1925 3103 
Q 1469 3103 1208 2742 
Q 947 2381 947 1747 
z
" transform="scale(0.015625)"/>
     </defs>
     <use xlink:href="#DejaVuSans-52"/>
     <use xlink:href="#DejaVuSans-65" transform="translate(64.982422 0)"/>
     <use xlink:href="#DejaVuSans-73" transform="translate(126.505859 0)"/>
     <use xlink:href="#DejaVuSans-70" transform="translate(178.605469 0)"/>
     <use xlink:href="#DejaVuSans-6f" transform="translate(242.082031 0)"/>
     <use xlink:href="#DejaVuSans-6e" transform="translate(303.263672 0)"/>
     <use xlink:href="#DejaVuSans-73" transform="translate(366.642578 0)"/>
     <use xlink:href="#DejaVuSans-65" transform="translate(418.742188 0)"/>
     <use xlink:href="#DejaVuSans-20" transform="translate(480.265625 0)"/>
     <use xlink:href="#DejaVuSans-70" transform="translate(512.052734 0)"/>
     <use xlink:href="#DejaVuSans-72" transform="translate(575.529297 0)"/>
     <use xlink:href="#DejaVuSans-6f" transform="translate(614.392578 0)"/>
     <use xlink:href="#DejaVuSans-66" transform="translate(675.574219 0)"/>
     <use xlink:href="#DejaVuSans-69" transform="translate(710.779297 0)"/>
     <use xlink:href="#DejaVuSans-6c" transform="translate(738.5625 0)"/>
     <use xlink:href="#DejaVuSans-65" transform="translate(766.345703 0)"/>
     <use xlink:href="#DejaVuSans-73" transform="translate(827.869141 0)"/>
     <use xlink:href="#DejaVuSans-20" transform="translate(879.96875 0)"/>
     <use xlink:href="#DejaVuSans-77" transform="translate(911.755859 0)"/>
     <use xlink:href="#DejaVuSans-69" transform="translate(993.542969 0)"/>
     <use xlink:href="#DejaVuSans-74" transform="translate(1021.326172 0)"/>
     <use xlink:href="#DejaVuSans-68" transform="translate(1060.535156 0)"/>
     <use xlink:href="#DejaVuSans-20" transform="translate(1123.914062 0)"/>
     <use xlink:href="#DejaVuSans-39" transform="translate(1155.701172 0)"/>
     <use xlink:href="#DejaVuSans-35" transform="translate(1219.324219 0)"/>
     <use xlink:href="#DejaVuSans-25" transform="translate(1282.947266 0)"/>
     <use xlink:href="#DejaVuSans-20" transform="translate(1377.966797 0)"/>
     <use xlink:href="#DejaVuSans-73" transform="translate(1409.753906 0)"/>
     <use xlink:href="#DejaVuSans-63" transform="translate(1461.853516 0)"/>
     <use xlink:href="#DejaVuSans-65" transform="translate(1516.833984 0)"/>
     <use xlink:href="#DejaVuSans-6e" transform="translate(1578.357422 0)"/>
     <use xlink:href="#DejaVuSans-65" transform="translate(1641.736328 0)"/>
     <use xlink:href="#DejaVuSans-2d" transform="translate(1703.259766 0)"/>
     <use xlink:href="#DejaVuSans-6c" transform="translate(1739.34375 0)"/>
     <use xlink:href="#DejaVuSans-65" transform="translate(1767.126953 0)"/>
     <use xlink:href="#DejaVuSans-76" transform="translate(1828.650391 0)"/>
     <use xlink:href="#DejaVuSans-65" transform="translate(1887.830078 0)"/>
     <use xlink:href="#DejaVuSans-6c" transform="translate(1949.353516 0)"/>
     <use xlink:href="#DejaVuSans-20" transform="translate(1977.136719 0)"/>
     <use xlink:href="#DejaVuSans-62" transform="translate(2008.923828 0)"/>
     <use xlink:href="#DejaVuSans-6f" transform="translate(2072.400391 0)"/>
     <use xlink:href="#DejaVuSans-6f" transform="translate(2133.582031 0)"/>
     <use xlink:href="#DejaVuSans-74" transform="translate(2194.763672 0)"/>
     <use xlink:href="#DejaVuSans-73" transform="translate(2233.972656 0)"/>
     <use xlink:href="#DejaVuSans-74" transform="translate(2286.072266 0)"/>
     <use xlink:href="#DejaVuSans-72" transform="translate(2325.28125 0)"/>
     <use xlink:href="#DejaVuSans-61" transform="translate(2366.394531 0)"/>
     <use xlink:href="#DejaVuSans-70" transform="translate(2427.673828 0)"/>
     <use xlink:href="#DejaVuSans-20" transform="translate(2491.150391 0)"/>
     <use xlink:href="#DejaVuSans-63" transform="translate(2522.9375 0)"/>
     <use xlink:href="#DejaVuSans-6f" transform="translate(2577.917969 0)"/>
     <use xlink:href="#DejaVuSans-6e" transform="translate(2639.099609 0)"/>
     <use xlink:href="#DejaVuSans-66" transform="translate(2702.478516 0)"/>
     <use xlink:href="#DejaVuSans-69" transform="translate(2737.683594 0)"/>
     <use xlink:href="#DejaVuSans-64" transform="translate(2765.466797 0)"/>
     <use xlink:href="#DejaVuSans-65" transform="translate(2828.943359 0)"/>
     <use xlink:href="#DejaVuSans-6e" transform="translate(2890.466797 0)"/>
     <use xlink:href="#DejaVuSans-63" transform="translate(2953.845703 0)"/>
     <use xlink:href="#DejaVuSans-65" transform="translate(3008.826172 0)"/>
     <use xlink:href="#DejaVuSans-20" transform="translate(3070.349609 0)"/>
     <use xlink:href="#DejaVuSans-69" transform="translate(3102.136719 0)"/>
     <use xlink:href="#DejaVuSans-6e" transform="translate(3129.919922 0)"/>
     <use xlink:href="#DejaVuSans-74" transform="translate(3193.298828 0)"/>
     <use xlink:href="#DejaVuSans-65" transform="translate(3232.507812 0)"/>
     <use xlink:href="#DejaVuSans-72" transform="translate(3294.03125 0)"/>
     <use xlink:href="#DejaVuSans-76" transform="translate(3335.144531 0)"/>
     <use xlink:href="#DejaVuSans-61" transform="translate(3394.324219 0)"/>
     <use xlink:href="#DejaVuSans-6c" transform="translate(3455.603516 0)"/>
     <use xlink:href="#DejaVuSans-73" transform="translate(3483.386719 0)"/>
    </g>
   </g>
   <g id="legend_1">
    <g id="patch_7">
     <path d="M 50.78125 74.3525 
L 137.334375 74.3525 
Q 139.334375 74.3525 139.334375 72.3525 
L 139.334375 29.318125 
Q 139.334375 27.318125 137.334375 27.318125 
L 50.78125 27.318125 
Q 48.78125 27.318125 48.78125 29.318125 
L 48.78125 72.3525 
Q 48.78125 74.3525 50.78125 74.3525 
z
" style="fill: #ffffff; opacity: 0.8; stroke: #cccccc; stroke-linejoin: miter"/>
    </g>
    <g id="LineCollection_4">
     <path d="M 62.78125 40.416562 
L 62.78125 30.416562 
" style="fill: none; stroke: #1f77b4; stroke-width: 1.5"/>
    </g>
    <g id="line2d_34">
     <g>
      <use xlink:href="#m4b4dafa8b9" x="62.78125" y="40.416562" style="fill: #1f77b4; stroke: #1f77b4"/>
     </g>
    </g>
    <g id="line2d_35">
     <g>
      <use xlink:href="#m4b4dafa8b9" x="62.78125" y="30.416562" style="fill: #1f77b4; stroke: #1f77b4"/>
     </g>
    </g>
    <g id="line2d_36">
     <path d="M 52.78125 35.416562 
L 72.78125 35.416562 
" style="fill: none; stroke: #1f77b4; stroke-width: 1.5; stroke-linecap: square"/>
    </g>
    <g id="line2d_37">
     <g>
      <use xlink:href="#m4e02ed8ad8" x="62.78125" y="35.416562" style="fill: #1f77b4; stroke: #1f77b4"/>
     </g>
    </g>
    <g id="text_15">
     <!-- AAS -->
     <g transform="translate(80.78125 38.916562) scale(0.1 -0.1)">
      <defs>
       <path id="DejaVuSans-41" d="M 2188 4044 
L 1331 1722 
L 3047 1722 
L 2188 4044 
z
M 1831 4666 
L 2547 4666 
L 4325 0 
L 3669 0 
L 3244 1197 
L 1141 1197 
L 716 0 
L 50 0 
L 1831 4666 
z
" transform="scale(0.015625)"/>
      </defs>
      <use xlink:href="#DejaVuSans-41"/>
      <use xlink:href="#DejaVuSans-41" transform="translate(71.158203 0)"/>
      <use xlink:href="#DejaVuSans-53" transform="translate(139.566406 0)"/>
     </g>
    </g>
    <g id="LineCollection_5">
     <path d="M 62.78125 55.094687 
L 62.78125 45.094687 
" style="fill: none; stroke: #ff7f0e; stroke-width: 1.5"/>
    </g>
    <g id="line2d_38">
     <g>
      <use xlink:href="#mb530c0ec08" x="62.78125" y="55.094687" style="fill: #ff7f0e; stroke: #ff7f0e"/>
     </g>
    </g>
    <g id="line2d_39">
     <g>
      <use xlink:href="#mb530c0ec08" x="62.78125" y="45.094687" style="fill: #ff7f0e; stroke: #ff7f0e"/>
     </g>
    </g>
    <g id="line2d_40">
     <path d="M 52.78125 50.094687 
L 72.78125 50.094687 
" style="fill: none; stroke-dasharray: 5.55,2.4; stroke-dashoffset: 0; stroke: #ff7f0e; stroke-width: 1.5"/>
    </g>
    <g id="line2d_41">
     <g>
      <use xlink:href="#m200b8048c4" x="62.78125" y="50.094687" style="fill: #ff7f0e; stroke: #ff7f0e; stroke-linejoin: miter"/>
     </g>
    </g>
    <g id="text_16">
     <!-- CFS -->
     <g transform="translate(80.78125 53.594687) scale(0.1 -0.1)">
      <defs>
       <path id="DejaVuSans-46" d="M 628 4666 
L 3309 4666 
L 3309 4134 
L 1259 4134 
L 1259 2759 
L 3109 2759 
L 3109 2228 
L 1259 2228 
L 1259 0 
L 628 0 
L 628 4666 
z
" transform="scale(0.015625)"/>
      </defs>
      <use xlink:href="#DejaVuSans-43"/>
      <use xlink:href="#DejaVuSans-46" transform="translate(69.824219 0)"/>
      <use xlink:href="#DejaVuSans-53" transform="translate(125.59375 0)"/>
     </g>
    </g>
    <g id="LineCollection_6">
     <path d="M 62.78125 69.772812 
L 62.78125 59.772812 
" style="fill: none; stroke: #2ca02c; stroke-width: 1.5"/>
    </g>
    <g id="line2d_42">
     <g>
      <use xlink:href="#mf941827146" x="62.78125" y="69.772812" style="fill: #2ca02c; stroke: #2ca02c"/>
     </g>
    </g>
    <g id="line2d_43">
     <g>
      <use xlink:href="#mf941827146" x="62.78125" y="59.772812" style="fill: #2ca02c; stroke: #2ca02c"/>
     </g>
    </g>
    <g id="line2d_44">
     <path d="M 52.78125 64.772812 
L 72.78125 64.772812 
" style="fill: none; stroke-dasharray: 9.6,2.4,1.5,2.4; stroke-dashoffset: 0; stroke: #2ca02c; stroke-width: 1.5"/>
    </g>
    <g id="line2d_45">
     <g>
      <use xlink:href="#m46ecdc07bd" x="62.78125" y="64.772812" style="fill: #2ca02c; stroke: #2ca02c; stroke-linejoin: miter"/>
     </g>
    </g>
    <g id="text_17">
     <!-- Dual utility -->
     <g transform="translate(80.78125 68.272812) scale(0.1 -0.1)">
      <defs>
       <path id="DejaVuSans-44" d="M 1259 4147 
L 1259 519 
L 2022 519 
Q 2988 519 3436 956 
Q 3884 1394 3884 2338 
Q 3884 3275 3436 3711 
Q 2988 4147 2022 4147 
L 1259 4147 
z
M 628 4666 
L 1925 4666 
Q 3281 4666 3915 4102 
Q 4550 3538 4550 2338 
Q 4550 1131 3912 565 
Q 3275 0 1925 0 
L 628 0 
L 628 4666 
z
" transform="scale(0.015625)"/>
       <path id="DejaVuSans-75" d="M 544 1381 
L 544 3500 
L 1119 3500 
L 1119 1403 
Q 1119 906 1312 657 
Q 1506 409 1894 409 
Q 2359 409 2629 706 
Q 2900 1003 2900 1516 
L 2900 3500 
L 3475 3500 
L 3475 0 
L 2900 0 
L 2900 538 
Q 2691 219 2414 64 
Q 2138 -91 1772 -91 
Q 1169 -91 856 284 
Q 544 659 544 1381 
z
M 1991 3584 
L 1991 3584 
z
" transform="scale(0.015625)"/>
       <path id="DejaVuSans-79" d="M 2059 -325 
Q 1816 -950 1584 -1140 
Q 1353 -1331 966 -1331 
L 506 -1331 
L 506 -850 
L 844 -850 
Q 1081 -850 1212 -737 
Q 1344 -625 1503 -206 
L 1606 56 
L 191 3500 
L 800 3500 
L 1894 763 
L 2988 3500 
L 3597 3500 
L 2059 -325 
z
" transform="scale(0.015625)"/>
      </defs>
      <use xlink:href="#DejaVuSans-44"/>
      <use xlink:href="#DejaVuSans-75" transform="translate(77.001953 0)"/>
      <use xlink:href="#DejaVuSans-61" transform="translate(140.380859 0)"/>
      <use xlink:href="#DejaVuSans-6c" transform="translate(201.660156 0)"/>
      <use xlink:href="#DejaVuSans-20" transform="translate(229.443359 0)"/>
      <use xlink:href="#DejaVuSans-75" transform="translate(261.230469 0)"/>
      <use xlink:href="#DejaVuSans-74" transform="translate(324.609375 0)"/>
      <use xlink:href="#DejaVuSans-69" transform="translate(363.818359 0)"/>
      <use xlink:href="#DejaVuSans-6c" transform="translate(391.601562 0)"/>
      <use xlink:href="#DejaVuSans-69" transform="translate(419.384766 0)"/>
      <use xlink:href="#DejaVuSans-74" transform="translate(447.167969 0)"/>
      <use xlink:href="#DejaVuSans-79" transform="translate(486.376953 0)"/>
     </g>
    </g>
   </g>
  </g>
 </g>
 <defs>
  <clipPath id="p1be1bcf301">
   <rect x="43.78125" y="22.318125" width="560.77" height="362.84"/>
  </clipPath>
 </defs>
</svg>
